<?xml version="1.0" standalone="no"?>
<!DOCTYPE svg PUBLIC "-//W3C//DTD SVG 20010904//EN"
 "http://www.w3.org/TR/2001/REC-SVG-20010904/DTD/svg10.dtd">
<svg version="1.0" xmlns="http://www.w3.org/2000/svg"
 width="2048.000000pt" height="1536.000000pt" viewBox="0 0 2048.000000 1536.000000"
 preserveAspectRatio="xMidYMid meet">

<g transform="translate(0.000000,1536.000000) scale(0.100000,-0.100000)"
fill="#000000" stroke="none">
<path d="M0 7680 l0 -7680 10240 0 10240 0 0 7680 0 7680 -10240 0 -10240 0 0
-7680z m14563 2763 c-7 -2 -21 -2 -30 0 -10 3 -4 5 12 5 17 0 24 -2 18 -5z
m-2843 -53 c0 -6 -24 -10 -52 -9 -42 1 -48 3 -28 9 36 12 80 12 80 0z m-1967
-147 c-7 -2 -21 -2 -30 0 -10 3 -4 5 12 5 17 0 24 -2 18 -5z m1967 -23 c0 -5
-21 -10 -47 -10 -35 0 -44 3 -33 10 20 13 80 13 80 0z m-1947 -147 c-7 -2 -21
-2 -30 0 -10 3 -4 5 12 5 17 0 24 -2 18 -5z m3121 -250 c3 -76 11 -313 16
-528 6 -214 12 -415 14 -446 4 -53 -6 -91 -19 -78 -5 6 -34 927 -35 1107 0
134 17 94 24 -55z m-104 114 c0 -4 -670 -454 -731 -491 -16 -10 -33 -16 -36
-12 -4 3 -4 8 -2 10 7 6 712 471 734 484 20 11 35 15 35 9z m658 -178 c405
-169 426 -178 420 -185 -4 -4 -91 31 -558 226 -219 91 -281 120 -256 120 4 0
181 -73 394 -161z m-4391 9 c-3 -7 -5 -2 -5 12 0 14 2 19 5 13 2 -7 2 -19 0
-25z m3553 -13 c-7 -8 -20 -15 -29 -15 -13 1 -13 3 3 15 26 19 42 19 26 0z
m-3263 -51 c142 -67 219 -103 398 -186 167 -78 284 -137 274 -138 -8 0 -164
68 -284 125 -55 26 -179 84 -275 129 -199 94 -240 115 -223 116 7 0 57 -21
110 -46z m-300 -61 c-3 -10 -5 -4 -5 12 0 17 2 24 5 18 2 -7 2 -21 0 -30z
m4528 7 c8 -13 -5 -13 -25 0 -13 8 -13 10 2 10 9 0 20 -4 23 -10z m738 -249
c133 -55 330 -134 437 -176 176 -69 231 -95 205 -95 -14 0 -862 342 -895 361
-11 6 -11 8 -2 9 7 0 122 -45 255 -99z m-329 7 c6 -86 23 -424 36 -728 5 -118
12 -252 16 -297 5 -69 3 -83 -9 -83 -12 0 -15 20 -16 103 -1 56 -4 127 -6 157
-3 30 -12 215 -20 410 -8 195 -18 390 -21 433 -4 51 -3 77 4 77 6 0 13 -32 16
-72z m-189 23 c-16 -10 -136 -75 -265 -146 -129 -70 -287 -156 -350 -190 -63
-34 -126 -68 -140 -75 -22 -11 -23 -11 -10 3 8 8 112 67 230 130 118 63 289
156 380 206 91 50 170 91 175 91 6 0 -3 -9 -20 -19z m-4768 -53 c-3 -7 -5 -2
-5 12 0 14 2 19 5 13 2 -7 2 -19 0 -25z m3274 -114 c140 -53 324 -121 409
-151 167 -60 166 -60 157 -69 -3 -4 -71 17 -149 46 -478 175 -684 253 -692
261 -24 22 38 2 275 -87z m-347 -359 c3 -236 9 -486 11 -555 4 -77 2 -131 -5
-140 -8 -13 -10 -12 -10 3 0 38 -108 49 -141 14 -10 -11 -19 -27 -19 -35 0 -9
-6 -12 -17 -7 -10 4 -35 9 -57 12 -40 4 -72 26 -62 42 10 15 -17 29 -84 42
-71 14 -94 27 -81 47 6 9 15 10 39 1 17 -6 41 -9 54 -7 19 3 12 10 -42 41
l-65 38 48 -5 c28 -3 45 -1 42 5 -10 15 5 49 21 49 8 0 14 -7 14 -15 0 -8 5
-15 11 -15 6 0 8 9 4 20 -8 24 13 28 22 4 4 -12 8 -13 13 -3 5 8 17 -3 36 -32
l29 -44 3 74 c2 44 9 82 17 95 8 11 15 15 15 8 0 -6 6 -12 14 -12 20 0 37 -57
30 -97 -4 -21 -2 -33 5 -33 6 0 11 -11 11 -25 0 -30 4 -31 41 -4 37 26 36 21
-1 -26 -17 -21 -29 -40 -27 -42 2 -2 21 3 43 10 49 18 68 13 54 -14 -9 -15 -7
-19 6 -19 16 0 17 36 11 524 -5 455 -3 546 9 534 1 -2 5 -196 8 -433z m-134
401 c0 -4 -193 -123 -320 -196 -41 -24 -110 -65 -153 -92 -43 -26 -80 -48 -82
-48 -3 0 -34 -18 -71 -41 -36 -22 -71 -38 -76 -37 -6 2 61 46 148 98 87 51
231 136 319 188 88 52 171 103 185 113 23 17 50 25 50 15z m3141 -231 c-1 -15
-24 -12 -29 3 -3 9 2 13 12 10 10 -1 17 -7 17 -13z m49 -68 c0 -18 13 -169 29
-337 33 -331 62 -712 55 -719 -9 -9 -15 9 -19 50 -20 202 -35 356 -35 367 0
20 -17 14 -23 -8 -3 -11 -13 -20 -22 -20 -14 0 -16 -6 -11 -31 5 -29 4 -30
-22 -28 -18 2 -39 -5 -57 -19 -16 -13 -37 -21 -47 -19 -9 3 -24 -3 -33 -13
-11 -12 -26 -16 -53 -13 -20 3 -47 5 -59 6 -12 1 -28 8 -35 15 -6 6 -17 12
-24 12 -20 0 -91 69 -104 101 -9 20 -19 29 -36 29 -17 0 -24 6 -24 20 0 11 4
20 9 20 17 0 23 41 11 71 -10 24 -9 38 4 79 9 28 14 55 10 61 -4 7 5 9 26 6
37 -6 70 17 70 49 0 16 8 23 28 27 15 3 31 1 37 -4 15 -15 25 -10 25 10 0 11
10 27 22 35 21 15 24 14 51 -15 26 -29 29 -30 46 -15 24 22 31 20 31 -8 0 -22
7 -26 54 -36 56 -11 58 -14 71 -80 0 -3 9 -18 18 -35 18 -29 18 -27 12 100 -4
72 -10 171 -15 220 -13 119 -12 168 0 160 6 -3 10 -21 10 -38z m-9194 -16
c161 -71 738 -323 764 -334 18 -7 21 -11 9 -14 -8 -2 -76 23 -150 56 -224 99
-549 241 -632 276 -76 32 -114 55 -90 55 6 0 50 -18 99 -39z m-215 -183 c-16
-90 -55 -307 -86 -483 -68 -389 -64 -367 -74 -361 -8 5 6 94 53 351 14 72 39
211 56 310 39 225 60 334 68 360 5 18 6 18 10 3 2 -10 -10 -91 -27 -180z
m5844 152 c-3 -5 -11 -10 -16 -10 -6 0 -7 5 -4 10 3 6 11 10 16 10 6 0 7 -4 4
-10z m1972 -138 c83 -37 150 -68 148 -70 -5 -5 -382 159 -403 175 -18 14 2 6
255 -105z m-6082 82 c-37 -28 -607 -305 -613 -298 -4 4 -2 9 3 11 6 2 143 71
305 152 274 138 357 175 305 135z m12224 -28 c7 -8 8 -17 3 -20 -5 -3 -7 -17
-4 -32 4 -21 1 -25 -14 -22 -20 3 -33 48 -14 48 7 0 9 8 5 20 -7 23 7 27 24 6z
m-8452 -523 c-4 -274 -7 -517 -7 -540 0 -24 -4 -43 -10 -43 -11 0 -15 1062 -3
1073 24 24 25 -21 20 -490z m-2130 435 c-3 -8 -6 -5 -6 6 -1 11 2 17 5 13 3
-3 4 -12 1 -19z m10553 -3 c0 -8 9 -15 20 -15 12 0 20 -7 20 -17 0 -15 -2 -16
-10 -3 -5 8 -12 11 -16 7 -9 -9 -45 23 -38 34 8 14 24 10 24 -6z m-5819 -88
c107 -46 194 -89 149 -73 -29 9 -273 116 -278 121 -11 10 8 4 129 -48z m2749
-3 c0 -14 -7 -32 -15 -40 -22 -22 -18 -47 10 -74 31 -29 32 -40 1 -40 -13 0
-26 -5 -28 -10 -2 -6 -13 -12 -26 -15 -12 -2 -27 -7 -33 -10 -6 -4 -26 -4 -45
-1 -24 5 -34 12 -34 26 0 10 -4 21 -9 24 -13 8 4 62 18 59 6 -2 11 3 12 10 1
6 2 23 2 37 2 29 38 40 63 19 11 -9 19 -7 39 15 30 33 45 33 45 0z m-3635 -33
c-6 -5 -75 -47 -155 -94 -80 -46 -212 -123 -295 -172 -215 -127 -319 -185
-329 -185 -21 0 18 24 225 144 117 67 288 166 379 219 148 87 202 115 175 88z
m-6235 -116 c0 -2 -10 -9 -22 -15 -22 -11 -22 -10 -4 4 21 17 26 19 26 11z
m2285 -14 c-28 -27 -693 -346 -702 -337 -3 3 5 10 18 15 13 5 166 79 339 164
352 172 365 178 345 158z m-1924 -34 c46 -19 128 -51 182 -72 53 -21 96 -40
94 -42 -6 -6 -363 130 -376 143 -12 11 23 1 100 -29z m-451 -2 c-25 -13 -49
-24 -55 -24 -5 0 10 11 35 24 25 13 50 24 55 24 6 0 -10 -11 -35 -24z m2850
-83 c113 -49 259 -110 325 -137 175 -70 265 -112 265 -124 0 -12 -15 -6 -255
94 -436 181 -594 255 -547 255 4 0 100 -40 212 -88z m-2990 18 c-8 -5 -19 -10
-25 -10 -5 0 -3 5 5 10 8 5 20 10 25 10 6 0 3 -5 -5 -10z m13377 -22 c-3 -7
-5 -2 -5 12 0 14 2 19 5 13 2 -7 2 -19 0 -25z m-6587 -23 c0 -9 -7 -18 -15
-21 -23 -9 -45 3 -39 21 8 20 54 20 54 0z m-5822 -35 c3 0 3 -3 0 -6 -7 -6
-78 22 -78 31 0 3 16 -2 36 -10 20 -8 39 -15 42 -15z m5919 -20 c-4 -23 -61
-20 -65 3 -2 10 2 24 8 32 10 12 15 12 36 -3 13 -9 23 -24 21 -32z m103 35 c0
-8 -4 -15 -10 -15 -5 0 -10 7 -10 15 0 8 5 15 10 15 6 0 10 -7 10 -15z m-3477
-29 c4 -9 -3 -16 -16 -20 -26 -6 -31 -2 -24 19 8 19 33 20 40 1z m-3723 0 c0
-2 -7 -7 -16 -10 -8 -3 -12 -2 -9 4 6 10 25 14 25 6z m3770 -92 c0 -14 -12
-19 -23 -8 -9 9 4 35 14 28 5 -3 9 -12 9 -20z m3076 -11 c-6 -14 -9 -15 -16
-4 -11 19 -1 46 13 32 5 -5 7 -18 3 -28z m-2906 -28 c0 -27 -15 -41 -25 -25
-10 16 4 62 15 55 6 -3 10 -17 10 -30z m4208 -21 c219 -78 371 -133 554 -197
165 -58 206 -76 176 -77 -29 0 -883 303 -902 321 -20 19 20 8 172 -47z m-4338
30 c0 -17 -22 -14 -28 4 -2 7 3 12 12 12 9 0 16 -7 16 -16z m3340 -19 c0 -17
-23 -25 -40 -15 -11 7 -11 11 -1 24 14 17 41 11 41 -9z m745 5 c3 -5 -3 -10
-14 -10 -12 0 -21 5 -21 10 0 6 6 10 14 10 8 0 18 -4 21 -10z m-4175 -65 c34
-18 37 -27 14 -50 -14 -14 -19 -14 -38 -2 -22 15 -35 67 -16 67 6 0 24 -7 40
-15z m2609 -140 c233 -79 426 -147 429 -150 3 -3 0 -5 -6 -5 -11 0 -677 223
-800 268 -51 18 -75 32 -56 32 5 0 200 -65 433 -145z m-654 96 c-10 -18 -713
-376 -721 -368 -10 10 42 38 365 204 316 161 370 186 356 164z m-3244 -34
c-13 -13 -26 -3 -16 12 3 6 11 8 17 5 6 -4 6 -10 -1 -17z m4175 -111 c21 -16
16 -30 -9 -20 -16 6 -32 34 -19 34 5 0 17 -6 28 -14z m-6961 -179 c77 -30 235
-92 350 -136 116 -45 224 -88 240 -97 l30 -15 -28 6 c-29 6 -127 43 -582 222
-132 52 -252 99 -267 105 -16 6 -28 14 -28 18 0 8 32 -3 285 -103z m3565 23
c0 -5 -7 -10 -16 -10 -8 0 -12 5 -9 10 3 6 10 10 16 10 5 0 9 -4 9 -10z m3580
0 c0 -5 -7 -10 -15 -10 -8 0 -15 5 -15 10 0 6 7 10 15 10 8 0 15 -4 15 -10z
m45 -20 c3 -5 -1 -10 -10 -10 -9 0 -13 5 -10 10 3 6 8 10 10 10 2 0 7 -4 10
-10z m-5820 -30 c-22 -10 -80 -34 -130 -55 -49 -20 -120 -50 -158 -66 -37 -16
-73 -29 -80 -28 -6 0 -1 5 13 11 61 27 110 48 180 77 41 16 102 41 135 55 68
29 101 34 40 6z m3935 -81 c0 -5 -4 -9 -10 -9 -5 0 -10 7 -10 16 0 8 5 12 10
9 6 -3 10 -10 10 -16z m-4340 -84 c0 -6 -32 -19 -70 -29 -14 -3 -7 3 15 13 42
21 55 24 55 16z m-130 -54 c-8 -5 -26 -12 -40 -15 l-25 -7 25 15 c14 9 32 15
40 15 13 0 13 -1 0 -8z m-940 -117 c0 -16 -26 -19 -35 -4 -3 6 -4 14 0 20 8
13 35 1 35 -16z m2386 -106 c-10 -6 -37 -27 -60 -46 -65 -57 -80 -68 -72 -54
12 21 139 122 145 116 3 -3 -3 -10 -13 -16z m69 -20 c-3 -18 -16 -114 -29
-213 -64 -479 -130 -925 -139 -925 -5 0 -7 15 -3 33 8 46 101 711 126 902 29
220 31 235 42 235 5 0 6 -15 3 -32z m450 -38 c105 -29 255 -69 334 -90 128
-34 194 -60 151 -60 -22 0 -752 199 -759 206 -13 15 94 -8 274 -56z m4600 -90
c233 -57 444 -107 603 -145 61 -15 112 -30 112 -34 0 -5 -35 0 -77 10 -43 10
-161 39 -263 63 -102 25 -284 68 -405 97 -121 29 -224 56 -230 62 -13 12 8 7
260 -53z m-5295 8 c-73 -64 -96 -84 -140 -117 -69 -53 -14 2 81 79 87 71 120
93 59 38z m4971 -160 c41 -966 43 -1004 31 -993 -6 6 -17 180 -27 420 -9 226
-20 484 -24 575 -7 157 -5 198 7 186 3 -3 9 -88 13 -188z m2576 88 c-8 -53 -2
-60 30 -39 24 16 24 16 18 -10 -7 -28 -9 -27 100 -42 22 -3 44 -10 49 -15 8
-8 -13 -12 -104 -23 -14 -1 -24 -8 -22 -15 1 -6 -5 -12 -13 -12 -20 0 -19 -9
3 -33 16 -20 16 -20 -3 -13 -43 17 -86 11 -106 -14 -18 -24 -19 -24 -19 -4 0
33 -22 46 -54 34 -37 -14 -37 -14 -30 16 4 16 2 29 -6 34 -8 5 -3 10 14 14 29
7 34 33 14 66 -10 16 -10 23 4 37 16 15 18 15 37 -8 14 -17 20 -20 21 -9 0 13
1 13 10 0 7 -11 14 -4 30 33 12 26 24 47 27 47 3 0 3 -20 0 -44z m1338 4 c8 0
22 -11 33 -25 11 -13 22 -21 26 -18 3 3 6 0 6 -7 0 -21 -61 -80 -82 -80 -11 0
-31 6 -47 14 -23 13 -27 20 -26 58 1 39 4 45 35 60 21 11 36 14 38 8 2 -6 10
-10 17 -10z m-2718 -80 c3 -8 5 -19 4 -23 -1 -5 4 -5 11 0 7 4 16 8 20 8 4 0
16 8 27 17 16 13 20 14 25 3 3 -8 0 -15 -6 -17 -6 -2 -8 -16 -3 -36 4 -19 11
-30 18 -25 6 4 8 0 4 -10 -4 -12 2 -21 23 -32 16 -8 36 -15 45 -15 22 0 18
-15 -7 -28 -45 -21 -67 -23 -100 -6 -22 11 -33 13 -36 5 -4 -12 -60 -15 -79
-3 -6 4 -16 38 -21 75 -9 68 -9 69 14 64 13 -2 21 0 18 4 -3 5 0 9 5 9 6 0 11
20 11 43 0 56 14 71 18 20 1 -21 6 -45 9 -53z m-2822 45 c55 -13 141 -35 190
-50 50 -14 191 -53 314 -85 123 -33 226 -62 229 -65 13 -12 -36 -2 -229 50
-112 30 -253 67 -314 81 -115 27 -325 92 -325 101 0 3 8 2 18 -2 9 -3 62 -17
117 -30z m-215 -200 c-5 -115 -11 -367 -14 -559 -3 -192 -8 -351 -11 -354 -3
-3 -8 -3 -11 0 -3 3 0 178 5 389 6 211 11 463 11 560 0 96 3 179 7 182 18 19
21 -25 13 -218z m-110 196 c0 -16 -484 -301 -511 -301 -24 0 10 23 178 120 98
57 210 122 248 146 73 45 85 50 85 35z m1760 5 c0 -3 -4 -8 -10 -11 -5 -3 -10
-1 -10 4 0 6 5 11 10 11 6 0 10 -2 10 -4z m1294 -41 c11 -9 14 -15 7 -15 -7 0
-19 7 -27 15 -20 19 -5 19 20 0z m-4114 -126 c217 -61 397 -113 399 -115 16
-14 -27 -5 -199 41 -157 42 -581 162 -638 181 -7 2 -11 8 -7 14 3 6 14 6 28 0
12 -5 200 -59 417 -121z m1230 62 c0 -9 8 -11 24 -7 19 5 25 1 29 -15 4 -16
11 -20 24 -15 10 4 22 8 28 9 15 3 18 -43 5 -69 -7 -12 -10 -34 -6 -48 5 -19
2 -28 -8 -32 -23 -9 -36 -59 -25 -96 12 -43 12 -48 -5 -48 -8 0 -22 -7 -31
-16 -25 -25 -33 -6 -26 57 8 65 5 79 -15 79 -22 0 -30 53 -26 184 2 64 3 68
17 50 8 -10 15 -25 15 -33z m180 29 c0 -11 -41 -50 -52 -50 -17 0 -7 32 14 50
22 18 38 18 38 0z m-1976 -112 c-7 -62 -24 -237 -39 -388 -14 -151 -30 -313
-35 -360 -5 -47 -12 -124 -16 -172 -3 -48 -10 -85 -15 -82 -5 2 -6 24 -4 47 3
23 19 188 36 367 16 179 39 408 49 510 11 102 20 189 20 193 0 5 4 6 8 3 4 -2
2 -56 -4 -118z m-1389 30 c127 -30 178 -47 145 -48 -30 -1 -310 74 -310 83 0
5 8 6 18 2 9 -3 76 -20 147 -37z m4856 25 c13 -15 11 -16 -10 -10 -13 3 -35 1
-48 -4 -33 -12 -44 -2 -19 17 26 19 60 18 77 -3z m-116 -28 c0 -11 -7 -21 -16
-23 -18 -3 -33 23 -23 39 10 17 39 5 39 -16z m-5039 -345 c-60 -446 -74 -548
-88 -657 -6 -51 -15 -93 -20 -93 -5 0 -7 12 -4 28 3 15 15 97 26 182 18 143
61 472 74 565 3 22 13 92 21 155 20 147 27 189 32 170 2 -9 -17 -166 -41 -350z
m5152 324 c4 -28 -20 -37 -46 -18 -28 20 -18 46 17 42 18 -2 27 -10 29 -24z
m-3147 -31 c39 -37 49 -71 30 -102 -7 -11 -20 -12 -63 -5 l-53 9 3 35 c1 19 3
43 3 52 0 11 6 15 15 11 8 -3 14 -2 13 3 -3 16 1 34 7 34 3 0 23 -17 45 -37z
m-1310 -42 c90 -22 166 -37 169 -34 3 3 -1 8 -7 10 -7 3 -13 9 -13 14 0 14 66
10 79 -5 16 -19 3 -46 -23 -46 -26 1 -375 86 -384 94 -10 11 17 6 179 -33z
m-2060 -28 c10 -26 -8 -50 -40 -55 -34 -4 -49 23 -31 57 17 32 59 31 71 -2z
m1044 11 c34 -22 32 -44 -3 -44 -32 0 -52 16 -52 42 0 22 23 23 55 2z m1345
-64 c12 -8 12 -10 -5 -9 -11 0 -29 4 -40 9 -18 8 -18 9 5 9 14 0 32 -4 40 -9z
m1766 -67 c-2 -10 -7 -90 -10 -178 -4 -88 -11 -221 -16 -295 -5 -74 -14 -223
-20 -330 -13 -216 -17 -247 -30 -234 -6 6 -4 93 5 219 8 116 21 354 30 530 9
176 19 327 22 335 7 20 23 -22 19 -47z m2261 41 c-3 -3 -12 -4 -19 -1 -8 3 -5
6 6 6 11 1 17 -2 13 -5z m-5467 -446 c-86 -610 -101 -712 -107 -717 -7 -7 0
55 42 354 19 132 46 326 60 430 28 211 34 240 41 232 3 -3 -13 -137 -36 -299z
m3930 84 c0 -11 -56 -52 -70 -52 -6 0 -10 8 -8 17 5 26 78 58 78 35z m-309
-12 c28 -16 23 -30 -27 -79 -43 -41 -45 -46 -28 -58 10 -7 37 -13 60 -13 24 0
46 -4 49 -10 3 -5 31 -17 61 -26 l54 -15 0 -93 c0 -134 -5 -152 -51 -178 -22
-12 -39 -25 -39 -30 0 -9 -121 -71 -160 -83 -14 -3 -65 -26 -115 -50 -96 -46
-258 -115 -271 -115 -22 0 187 102 311 151 l30 12 -25 7 c-32 8 -88 -9 -68
-21 14 -10 7 -12 -14 -4 -9 4 -12 21 -9 61 4 71 -27 224 -47 232 -8 3 -22 -4
-31 -17 -12 -16 -19 -19 -28 -10 -8 8 -8 21 2 49 16 46 20 99 10 123 -11 25 4
36 20 14 11 -15 13 -16 19 -2 3 9 18 15 41 15 48 0 95 25 95 50 0 11 6 20 14
20 7 0 19 14 26 31 19 44 76 63 121 39z m167 -67 c2 -23 -3 -35 -20 -47 -52
-36 -73 -5 -32 49 31 42 48 41 52 -2z m430 -165 c-2 -15 -11 -24 -25 -26 -27
-4 -29 5 -6 30 22 24 35 23 31 -4z m-273 -10 c28 -7 53 -16 56 -21 17 -24 -23
-95 -54 -97 -5 0 -24 -12 -43 -26 -56 -43 -66 -30 -61 73 3 49 5 90 6 92 1 2
11 0 24 -3 12 -4 45 -12 72 -18z m-3221 -17 c-29 -27 -378 -270 -382 -266 -3
3 -3 6 -1 8 74 59 384 276 387 272 3 -3 1 -9 -4 -14z m421 -30 c72 -17 264
-62 429 -101 164 -38 301 -72 305 -76 10 -12 -87 8 -369 74 -69 17 -197 46
-285 66 -221 51 -245 57 -245 68 0 5 8 7 18 4 9 -2 76 -18 147 -35z m4861
-147 c257 -56 706 -150 756 -158 36 -7 63 -26 36 -26 -14 0 -242 47 -558 114
-113 25 -243 52 -290 61 -122 24 -160 34 -160 45 0 13 -25 17 216 -36z m-1816
1 c23 -12 23 -14 7 -21 -21 -8 -67 10 -67 26 0 14 30 12 60 -5z m1385 -14 c-3
-5 -22 -15 -43 -22 -20 -6 -41 -15 -47 -19 -5 -4 -63 -28 -129 -54 -65 -26
-126 -51 -135 -56 -9 -5 -47 -21 -86 -36 -38 -15 -74 -31 -79 -36 -6 -4 -16
-8 -24 -8 -8 0 -29 -7 -48 -16 -19 -9 -37 -14 -40 -11 -3 2 30 19 73 37 110
46 494 208 518 219 26 13 48 13 40 2z m-3055 -41 c0 -5 -4 -10 -10 -10 -5 0
-10 5 -10 10 0 6 5 10 10 10 6 0 10 -4 10 -10z m4601 -16 c11 -14 10 -15 -11
-12 -13 1 -25 9 -28 16 -5 17 23 15 39 -4z m-4755 -63 c153 -38 359 -88 456
-111 164 -38 201 -51 181 -63 -8 -4 -224 47 -613 144 -113 29 -229 57 -259 64
-30 6 -57 17 -59 23 -2 7 0 12 5 12 5 0 135 -31 289 -69z m1952 22 c5 -17 -15
-16 -53 2 l-30 14 39 -2 c22 -1 41 -8 44 -14z m-2433 -9 c-23 -18 -343 -208
-389 -231 -76 -38 6 19 132 91 73 43 161 94 195 116 61 38 101 53 62 24z
m2215 -20 c0 -8 -4 -12 -10 -9 -5 3 -10 10 -10 16 0 5 5 9 10 9 6 0 10 -7 10
-16z m-3894 -49 c-11 -8 -24 -15 -30 -15 -5 0 -1 7 10 15 10 8 24 14 29 14 6
0 1 -6 -9 -14z m-51 -33 c-29 -24 -85 -62 -92 -62 -4 0 14 16 41 35 44 31 75
48 51 27z m6063 -14 c-2 -3 7 -17 20 -31 20 -21 21 -25 7 -31 -9 -3 -24 -2
-33 4 -10 5 -13 10 -9 10 4 0 3 9 -3 20 -12 22 -5 43 12 38 5 -2 8 -6 6 -10z
m-3778 -18 c0 -5 -4 -10 -10 -10 -5 0 -10 5 -10 10 0 6 5 10 10 10 6 0 10 -4
10 -10z m972 -25 c0 -5 -5 -11 -11 -13 -6 -2 -11 4 -11 13 0 9 5 15 11 13 6
-2 11 -8 11 -13z m398 -21 c0 -16 -16 -19 -25 -4 -8 13 4 32 16 25 5 -4 9 -13
9 -21z m-730 6 c0 -5 -4 -10 -10 -10 -5 0 -10 5 -10 10 0 6 5 10 10 10 6 0 10
-4 10 -10z m-452 -18 c2 -7 -6 -12 -17 -12 -21 0 -27 11 -14 24 9 9 26 2 31
-12z m1362 -41 c0 -11 -5 -9 -21 7 -11 12 -17 27 -13 34 8 13 34 -17 34 -41z
m-2320 15 c-1 -19 -26 -46 -44 -46 -18 0 -22 40 -5 57 13 13 49 5 49 -11z
m2260 -25 c-1 -12 -6 -10 -20 8 -11 12 -17 28 -13 34 8 12 33 -20 33 -42z
m-3935 29 c-3 -5 -16 -15 -28 -21 -19 -9 -19 -8 3 10 28 23 34 26 25 11z
m4829 -22 c9 -17 16 -37 16 -45 0 -21 -34 -15 -49 9 -11 18 -11 23 1 32 8 6
13 17 11 24 -9 24 6 11 21 -20z m-1140 -6 c8 -13 -11 -35 -23 -28 -16 10 -14
36 3 36 8 0 17 -4 20 -8z m-914 -37 c0 -8 -7 -15 -15 -15 -8 0 -15 7 -15 15 0
8 7 15 15 15 8 0 15 -7 15 -15z m1310 -57 c0 -17 -19 -7 -35 18 l-17 27 26
-19 c14 -11 26 -22 26 -26z m972 -68 c61 -60 115 -110 119 -110 4 0 11 -9 14
-20 3 -11 14 -20 24 -20 10 0 24 -7 32 -16 11 -13 10 -20 -5 -42 -9 -15 -20
-34 -23 -42 -5 -14 -62 -65 -141 -127 -26 -20 -30 -28 -21 -39 7 -8 9 -18 5
-21 -4 -4 -11 -1 -17 7 -8 13 -11 13 -23 -2 -7 -10 -17 -18 -21 -18 -4 0 -25
-16 -46 -35 -44 -39 -63 -37 -78 7 -13 36 -6 52 20 45 11 -3 19 -1 19 5 0 5 5
6 10 3 6 -3 10 -2 10 3 0 6 -7 13 -16 16 -13 5 -14 9 -4 20 7 10 8 21 2 33 -5
10 -7 24 -4 32 3 8 0 11 -7 7 -7 -5 -9 -1 -5 9 5 12 10 13 17 6 6 -6 16 -11
22 -11 6 0 5 3 -2 8 -16 10 -28 62 -14 62 6 0 11 -3 11 -7 0 -5 12 -16 25 -26
l24 -17 -13 27 c-36 73 -48 113 -33 113 7 1 1 7 -13 15 -28 16 -41 19 -37 8 1
-5 -2 -9 -8 -11 -19 -6 -67 75 -72 121 -8 72 1 93 49 110 77 26 80 25 200 -93z
m-3262 86 c0 -3 -4 -8 -10 -11 -5 -3 -10 -1 -10 4 0 6 5 11 10 11 6 0 10 -2
10 -4z m1415 -17 c-4 -5 -13 -9 -22 -9 -13 0 -13 3 -3 15 13 15 35 11 25 -6z
m480 -11 c4 -18 9 -44 11 -57 2 -14 8 -37 14 -51 6 -15 9 -40 7 -56 -2 -15 0
-49 5 -73 4 -25 5 -54 1 -65 -5 -14 -9 1 -14 47 -3 43 -11 72 -21 80 -11 9
-17 39 -22 110 -5 95 4 128 19 65z m3335 22 c0 -5 -4 -10 -10 -10 -5 0 -10 5
-10 10 0 6 5 10 10 10 6 0 10 -4 10 -10z m-3730 -36 c0 -16 -16 -19 -25 -4 -8
13 4 32 16 25 5 -4 9 -13 9 -21z m3308 -23 c4 -27 -12 -21 -29 10 -9 18 -8 20
8 17 10 -2 19 -14 21 -27z m-4620 -23 c7 -10 18 -18 24 -18 5 0 23 -9 39 -21
25 -17 28 -24 17 -36 -7 -9 -23 -13 -39 -11 l-27 4 21 -28 c14 -19 27 -26 39
-22 13 4 18 0 18 -13 0 -11 5 -24 12 -31 23 -23 -9 -12 -48 16 -84 62 -132
143 -104 177 13 16 28 11 48 -17z m1507 -8 c0 -22 -29 -18 -33 3 -3 14 1 18
15 15 10 -2 18 -10 18 -18z m-2421 -12 c5 -9 7 -20 3 -25 -11 -10 -41 11 -45
31 -5 23 26 18 42 -6z m2799 16 c9 -9 -4 -35 -14 -28 -5 3 -9 12 -9 20 0 14
12 19 23 8z m347 -10 c0 -9 -5 -14 -12 -12 -18 6 -21 28 -4 28 9 0 16 -7 16
-16z m-1370 -4 c0 -5 -4 -10 -10 -10 -5 0 -10 5 -10 10 0 6 5 10 10 10 6 0 10
-4 10 -10z m-1210 -9 c0 -12 -42 -42 -49 -36 -5 6 30 44 42 44 4 1 7 -3 7 -8z
m2980 -1 c0 -5 -2 -10 -4 -10 -3 0 -8 5 -11 10 -3 6 -1 10 4 10 6 0 11 -4 11
-10z m1448 -33 c2 -10 -3 -17 -11 -17 -18 0 -39 24 -30 34 12 12 38 2 41 -17z
m-2698 -6 c0 -14 -18 -23 -30 -16 -6 4 -8 11 -5 16 8 12 35 12 35 0z m-1204
-22 c19 -21 19 -21 -6 -18 -14 2 -26 12 -28 22 -5 23 11 22 34 -4z m-456 1 c0
-5 -4 -10 -10 -10 -5 0 -10 5 -10 10 0 6 5 10 10 10 6 0 10 -4 10 -10z m3084
-21 c-3 -5 -10 -7 -15 -3 -5 3 -7 10 -3 15 3 5 10 7 15 3 5 -3 7 -10 3 -15z
m1441 11 c3 -5 -1 -10 -9 -10 -9 0 -16 5 -16 10 0 6 4 10 9 10 6 0 13 -4 16
-10z m-2120 -20 c3 -5 -2 -21 -11 -35 -16 -24 -16 -27 2 -48 10 -12 20 -24 21
-26 1 -2 9 2 17 8 23 20 53 4 60 -31 7 -38 8 -37 -38 -45 -32 -5 -37 -3 -47
23 -7 17 -13 24 -16 16 -3 -7 1 -19 7 -27 10 -12 9 -15 -4 -15 -13 0 -14 -5
-5 -27 10 -28 4 -79 -13 -100 -5 -7 -7 -16 -4 -21 6 -10 -51 -82 -66 -82 -7 0
-9 17 -6 45 5 39 3 45 -13 45 -15 0 -19 -6 -17 -32 3 -28 -1 -34 -21 -36 -28
-4 -45 17 -29 35 20 25 -1 26 -34 2 -27 -20 -37 -23 -55 -14 -32 14 -30 39 1
31 34 -8 38 4 20 51 -15 39 -15 40 16 86 17 25 36 44 43 42 48 -14 67 -15 67
-1 0 9 9 20 20 26 11 6 20 8 20 4 0 -3 6 -1 13 5 8 6 17 8 20 4 4 -3 7 -1 7 5
0 16 -22 27 -48 23 -20 -2 -23 1 -20 26 2 21 8 28 26 28 12 0 32 11 44 23 25
24 34 27 43 12z m605 0 c0 -5 -5 -10 -11 -10 -5 0 -7 5 -4 10 3 6 8 10 11 10
2 0 4 -4 4 -10z m-2570 -22 c0 -7 -5 -20 -10 -28 -7 -12 -12 -12 -21 -3 -9 9
-9 16 1 28 15 18 30 20 30 3z m451 -32 c27 -25 64 -48 81 -51 54 -12 107 -41
130 -70 22 -28 160 -223 185 -262 10 -16 12 -14 12 15 1 21 6 32 16 32 18 0
29 -41 21 -76 -5 -18 0 -37 14 -61 11 -20 19 -38 16 -40 -3 -3 -22 -7 -43 -8
-21 -2 -49 -7 -63 -10 -14 -3 -106 3 -205 15 -99 11 -245 27 -325 36 -219 23
-292 35 -279 48 4 4 311 -28 367 -37 12 -2 22 -1 22 2 0 4 -30 36 -67 72 -65
61 -70 69 -101 164 -26 76 -33 113 -30 154 l3 53 80 33 c44 18 88 33 99 34 10
0 40 -19 67 -43z m1329 29 c27 -33 -13 -80 -50 -58 -14 9 -27 10 -45 3 -38
-14 -52 -12 -60 7 -4 12 2 25 20 40 31 27 115 32 135 8z m-2280 -15 c0 -5 -5
-10 -11 -10 -5 0 -7 5 -4 10 3 6 8 10 11 10 2 0 4 -4 4 -10z m2635 -20 c11
-17 -5 -32 -21 -19 -7 6 -11 15 -8 20 7 12 21 11 29 -1z m-2875 -31 c0 -5 -4
-9 -10 -9 -5 0 -10 7 -10 16 0 8 5 12 10 9 6 -3 10 -10 10 -16z m1877 5 c3 -9
0 -20 -7 -24 -7 -4 -10 -15 -7 -24 9 -23 -29 -21 -42 2 -7 13 -4 23 11 40 25
26 36 28 45 6z m1263 -28 c0 -8 7 -16 15 -20 22 -8 18 -36 -5 -36 -13 0 -20 7
-20 20 0 11 -4 20 -10 20 -5 0 -10 7 -10 15 0 8 7 15 15 15 8 0 15 -6 15 -14z
m-900 -11 c0 -16 -27 -32 -37 -21 -7 7 16 36 28 36 5 0 9 -7 9 -15z m-1492
-22 c-4 -22 -22 -20 -26 1 -2 10 3 16 13 16 10 0 15 -7 13 -17z m3972 -55 c0
-14 28 -8 33 6 3 8 24 20 47 27 35 11 43 10 56 -3 13 -12 14 -20 5 -36 -15
-28 -14 -35 3 -29 18 7 42 -18 26 -28 -5 -3 -15 -3 -21 1 -8 4 -8 0 0 -15 7
-13 22 -21 39 -22 119 -3 125 -7 93 -49 -18 -22 -21 -23 -45 -10 -18 9 -58 13
-120 13 l-93 0 -22 44 c-11 24 -21 50 -21 59 0 8 -7 26 -16 39 -9 14 -13 32
-9 42 6 16 8 15 25 -7 11 -14 20 -28 20 -32z m-4547 -3 c-6 -17 -29 -20 -38
-6 -6 11 25 32 37 25 4 -3 5 -11 1 -19z m2110 5 c6 -23 -3 -26 -21 -8 -16 16
-15 28 2 28 7 0 16 -9 19 -20z m994 -11 c6 -6 9 -17 7 -24 -3 -7 -1 -16 5 -20
16 -9 13 -25 -3 -25 -18 0 -46 38 -46 62 0 20 20 24 37 7z m956 -4 c7 -16 -8
-29 -23 -20 -15 9 -12 35 4 35 8 0 16 -7 19 -15z m1514 -10 c8 -22 -6 -33 -17
-15 -13 20 -12 30 0 30 6 0 13 -7 17 -15z m-5617 -22 c0 -20 -3 -24 -11 -16
-7 7 -9 19 -6 27 10 24 17 19 17 -11z m1857 -15 c-3 -7 -5 -2 -5 12 0 14 2 19
5 13 2 -7 2 -19 0 -25z m923 1 c0 -5 -4 -9 -10 -9 -5 0 -10 7 -10 16 0 8 5 12
10 9 6 -3 10 -10 10 -16z m85 11 c3 -5 -1 -10 -9 -10 -9 0 -16 5 -16 10 0 6 4
10 9 10 6 0 13 -4 16 -10z m1127 -42 c-17 -17 -47 9 -30 29 10 12 13 12 27 -1
11 -12 12 -19 3 -28z m-1004 4 c2 -7 -3 -12 -12 -12 -9 0 -16 7 -16 16 0 17
22 14 28 -4z m2567 -2 c3 -5 -1 -10 -9 -10 -9 0 -16 5 -16 10 0 6 4 10 9 10 6
0 13 -4 16 -10z m-3325 -20 c0 -11 -7 -20 -15 -20 -15 0 -21 21 -8 33 12 13
23 7 23 -13z m2229 3 c5 -10 18 -18 28 -18 10 0 19 -8 21 -18 3 -15 0 -16 -25
-5 -39 17 -53 28 -53 44 0 20 17 17 29 -3z m-2280 -43 c-2 -27 0 -53 4 -56 13
-14 7 -36 -8 -31 -8 4 -17 2 -20 -3 -11 -18 -23 -11 -39 22 -20 38 -20 39 -1
32 10 -4 21 7 35 40 10 25 22 46 25 46 4 0 5 -22 4 -50z m-1894 29 c10 -15 -1
-23 -20 -15 -9 3 -13 10 -10 16 8 13 22 13 30 -1z m3775 2 c0 -18 -22 -71 -30
-71 -15 0 -19 30 -8 55 10 23 38 35 38 16z m-2360 -36 c0 -16 -6 -25 -15 -25
-9 0 -15 9 -15 25 0 16 6 25 15 25 9 0 15 -9 15 -25z m2488 2 c2 -10 -3 -17
-12 -17 -18 0 -29 16 -21 31 9 14 29 6 33 -14z m-1072 -20 c1 -9 -4 -17 -12
-17 -8 0 -14 9 -14 21 0 24 22 21 26 -4z m-381 3 c11 -17 -5 -32 -21 -19 -7 6
-11 15 -8 20 7 12 21 11 29 -1z m-2175 -36 c0 -19 -5 -25 -17 -22 -22 4 -30
38 -12 49 19 11 29 2 29 -27z m2608 13 c2 -10 -3 -17 -12 -17 -10 0 -16 9 -16
21 0 24 23 21 28 -4z m839 8 c3 -9 3 -19 -1 -22 -7 -7 -36 16 -36 28 0 15 30
10 37 -6z m-1745 -12 c18 -16 25 -43 10 -43 -15 0 -53 41 -47 51 9 13 16 11
37 -8z m1026 -5 c-4 -28 -45 -38 -55 -13 -7 19 12 35 40 35 13 0 18 -6 15 -22z
m158 7 c4 -8 14 -15 23 -16 18 -1 -28 -23 -69 -33 -16 -4 -12 0 10 10 29 14
32 17 17 25 -9 6 -17 14 -17 19 0 16 30 11 36 -5z m-551 -5 c3 -5 1 -10 -4
-10 -6 0 -11 5 -11 10 0 6 2 10 4 10 3 0 8 -4 11 -10z m458 -15 c4 -8 1 -17
-5 -21 -7 -4 -7 -9 2 -14 6 -4 -3 -7 -20 -8 -35 -1 -49 20 -30 43 16 19 46 19
53 0z m270 -562 c3 -328 1 -563 -4 -563 -5 0 -9 27 -9 60 0 47 -3 60 -15 60
-8 0 -15 5 -15 10 0 6 7 10 15 10 13 0 15 62 15 497 0 273 2 494 4 492 2 -2 6
-257 9 -566z m-803 543 c0 -20 -26 -40 -35 -26 -10 16 2 40 20 40 8 0 15 -6
15 -14z m290 -10 c0 -19 -17 -29 -37 -22 -12 5 -13 9 -3 21 16 19 40 19 40 1z
m165 -26 c4 -6 11 -7 17 -4 7 4 8 2 4 -4 -7 -12 -77 -34 -85 -27 -2 3 1 5 7 5
7 0 12 9 12 20 0 21 33 29 45 10z m767 -62 c54 -35 82 -48 90 -41 21 15 99 42
156 53 56 10 172 -2 222 -23 14 -6 28 -10 33 -9 4 1 7 -2 7 -8 0 -9 -123 -51
-220 -74 -30 -8 -111 -30 -178 -50 -68 -20 -128 -33 -134 -30 -7 4 -6 9 1 14
7 3 9 15 5 25 -7 16 -9 16 -24 -5 -16 -22 -20 -22 -49 -10 -25 10 -32 20 -37
51 -6 33 -10 39 -30 39 -13 0 -24 4 -24 9 0 13 26 32 33 24 4 -3 7 3 7 15 0
23 -16 30 -22 11 -5 -14 -60 1 -65 17 -5 15 16 40 25 29 13 -18 52 -13 52 6 0
41 42 29 152 -43z m578 57 c21 -25 4 -45 -37 -44 -84 2 -118 28 -61 46 48 16
84 15 98 -2z m-2713 -1 c-3 -3 -12 -4 -19 -1 -8 3 -5 6 6 6 11 1 17 -2 13 -5z
m1080 -10 c3 -8 1 -20 -5 -26 -15 -15 -43 8 -35 28 7 19 32 18 40 -2z m43 6
c0 -5 -2 -10 -4 -10 -3 0 -8 5 -11 10 -3 6 -1 10 4 10 6 0 11 -4 11 -10z
m-1035 -77 c-9 -153 -15 -271 -21 -483 -4 -118 -10 -233 -15 -255 -8 -43 -4
186 12 530 5 116 9 227 9 248 0 20 5 37 10 37 7 0 9 -28 5 -77z m1183 57 c2
-11 -5 -15 -21 -15 -30 2 -49 14 -41 26 9 15 58 6 62 -11z m-588 -6 c0 -14 -3
-14 -15 -4 -8 7 -15 14 -15 16 0 2 7 4 15 4 8 0 15 -7 15 -16z m-3450 -4 c0
-5 -2 -10 -4 -10 -3 0 -8 5 -11 10 -3 6 -1 10 4 10 6 0 11 -4 11 -10z m2970
-51 c0 -35 -4 -49 -12 -47 -20 7 -32 57 -19 85 17 36 31 18 31 -38z m-1605
-165 c-8 -109 -24 -341 -35 -514 -11 -173 -22 -324 -25 -335 -5 -27 9 305 21
500 l5 70 -27 -30 c-15 -16 -88 -99 -162 -183 -74 -83 -136 -151 -137 -150 -4
6 15 366 24 463 6 55 10 112 11 126 0 25 2 27 51 26 40 -1 53 3 62 18 6 11 27
38 48 59 36 39 39 40 98 39 61 -2 61 -2 61 26 0 35 11 93 17 88 2 -2 -3 -94
-12 -203z m2615 182 c0 -2 -15 -9 -32 -15 -30 -10 -31 -9 -14 4 18 14 46 20
46 11z m1588 -34 c2 -7 -3 -12 -12 -12 -9 0 -16 7 -16 16 0 17 22 14 28 -4z
m-5418 4 c0 -3 -4 -8 -10 -11 -5 -3 -10 -1 -10 4 0 6 5 11 10 11 6 0 10 -2 10
-4z m2320 0 c0 -2 -7 -7 -16 -10 -8 -3 -12 -2 -9 4 6 10 25 14 25 6z m660 -17
c0 -24 -23 -21 -28 4 -2 10 3 17 12 17 10 0 16 -9 16 -21z m1257 -5 c-9 -9
-28 6 -21 18 4 6 10 6 17 -1 6 -6 8 -13 4 -17z m-1488 -36 c1 -10 -6 -18 -14
-18 -16 0 -22 50 -8 64 8 8 21 -19 22 -46z m1171 31 c11 -6 6 -8 -16 -9 -17 0
-37 7 -45 16 -11 13 -9 14 17 8 16 -4 36 -10 44 -15z m-1570 -3 c0 -18 -16
-29 -30 -21 -13 8 -1 35 16 35 8 0 14 -6 14 -14z m536 -39 c2 -48 -9 -60 -34
-35 -13 13 -16 70 -5 82 4 4 14 5 23 4 11 -2 15 -17 16 -51z m-1498 -40 c2
-62 0 -77 -12 -77 -11 0 -15 18 -18 80 -2 67 -1 80 12 78 11 -3 16 -21 18 -81z
m442 73 c0 -5 -7 -7 -15 -4 -8 4 -15 8 -15 10 0 2 7 4 15 4 8 0 15 -4 15 -10z
m84 -5 c20 -11 32 -12 36 -5 4 6 14 8 23 4 29 -11 8 -24 -39 -24 -31 0 -43 4
-38 11 4 8 0 9 -15 4 -16 -5 -20 -3 -15 9 8 20 12 20 48 1z m1592 -31 c8 -31
-1 -42 -23 -28 -25 16 -37 39 -30 58 9 24 45 4 53 -30z m589 26 c50 -6 105
-13 124 -16 30 -5 33 -3 23 9 -10 12 -9 16 4 21 20 8 40 -7 47 -34 3 -11 4
-20 4 -20 -1 0 -72 9 -157 20 -85 11 -161 20 -167 20 -7 0 -13 5 -13 10 0 6
10 8 23 6 12 -3 63 -10 112 -16z m1266 -42 c0 -35 2 -70 3 -78 2 -8 6 -157 10
-330 3 -173 9 -387 12 -475 4 -107 3 -157 -4 -150 -9 9 -15 142 -27 620 -3
110 -8 262 -11 338 -4 94 -2 137 5 137 7 0 11 -25 12 -62z m596 26 c-9 -9 -28
6 -21 18 4 6 10 6 17 -1 6 -6 8 -13 4 -17z m220 0 c-9 -9 -28 6 -21 18 4 6 10
6 17 -1 6 -6 8 -13 4 -17z m-3965 -1 c14 -13 18 -13 18 -2 0 11 2 11 10 -1 6
-10 10 -11 10 -2 0 6 5 12 11 12 8 0 10 -52 5 -192 -4 -106 -9 -213 -11 -238
-2 -25 -7 -134 -11 -243 -3 -108 -10 -200 -15 -203 -11 -7 -11 108 1 300 l9
150 -29 43 c-30 44 -32 65 -15 142 7 27 4 37 -12 50 -24 19 -38 67 -23 76 6 4
8 15 5 26 -4 11 -2 19 4 19 6 0 11 7 11 16 0 8 4 13 8 10 4 -2 9 4 9 15 1 11
-2 17 -8 14 -5 -4 -9 1 -9 9 0 20 9 20 32 -1z m878 -3 c8 -15 8 -20 -3 -20
-14 0 -37 19 -37 32 0 16 30 7 40 -12z m738 2 c2 -7 -2 -10 -12 -6 -9 3 -16
11 -16 16 0 13 23 5 28 -10z m-142 -17 c4 -16 0 -30 -10 -40 -9 -9 -16 -25
-16 -35 0 -11 -10 -28 -21 -39 -13 -12 -19 -26 -16 -36 4 -9 -1 -20 -12 -27
-11 -6 -17 -18 -13 -26 3 -10 0 -13 -9 -10 -8 3 -14 12 -14 21 0 21 -10 29
-36 31 -12 0 -26 8 -32 17 -8 12 1 27 41 70 28 30 60 64 71 77 27 30 59 29 67
-3z m-324 -2 c22 -20 23 -39 3 -47 -8 -3 -21 4 -30 17 -29 42 -10 64 27 30z
m-1820 -20 c15 -15 28 -32 28 -39 0 -6 7 -25 15 -40 8 -16 15 -35 15 -41 0
-23 -20 -14 -30 13 -6 14 -23 42 -39 62 -53 68 -46 99 11 45z m1490 12 c0 -5
-5 -11 -11 -13 -6 -2 -11 4 -11 13 0 9 5 15 11 13 6 -2 11 -8 11 -13z m1453
-6 c87 -12 110 -17 104 -24 -6 -5 -209 22 -216 29 -9 9 23 7 112 -5z m-2765
-9 c0 -5 -2 -10 -4 -10 -3 0 -8 5 -11 10 -3 6 -1 10 4 10 6 0 11 -4 11 -10z
m1820 -6 c0 -8 -4 -12 -10 -9 -5 3 -10 10 -10 16 0 5 5 9 10 9 6 0 10 -7 10
-16z m-2019 -52 c16 -25 29 -50 29 -54 0 -10 -81 1 -94 13 -6 5 -3 16 6 26 11
12 14 28 11 47 -8 39 10 27 48 -32z m398 41 c-6 -7 -14 -11 -18 -9 -4 3 -8
-11 -8 -30 -1 -19 3 -34 8 -34 5 0 13 -10 18 -22 9 -23 9 -23 21 5 15 31 30
36 30 10 0 -15 2 -15 9 -4 5 8 7 20 4 28 -3 7 0 13 6 13 14 0 14 -9 0 -48 -11
-33 -42 -47 -69 -30 -23 15 -54 74 -46 87 4 6 0 11 -8 11 -9 0 -16 2 -16 4 0
2 -3 12 -6 20 -5 14 1 16 40 15 37 -2 44 -5 35 -16z m61 2 c-7 -9 -15 -13 -17
-11 -7 7 7 26 19 26 6 0 6 -6 -2 -15z m560 -11 c0 -8 -7 -14 -15 -14 -8 0 -15
9 -15 20 0 13 5 18 15 14 8 -4 15 -12 15 -20z m2510 16 c0 -5 -4 -10 -10 -10
-5 0 -10 5 -10 10 0 6 5 10 10 10 6 0 10 -4 10 -10z m-3600 -14 c0 -3 -4 -8
-10 -11 -5 -3 -10 -1 -10 4 0 6 5 11 10 11 6 0 10 -2 10 -4z m1490 -41 c0 -8
-4 -15 -10 -15 -5 0 -10 7 -10 15 0 8 5 15 10 15 6 0 10 -7 10 -15z m1525 6
c3 -5 1 -12 -5 -16 -5 -3 -10 1 -10 9 0 18 6 21 15 7z m235 -52 c0 -78 -36
-73 -40 6 -3 54 -3 54 20 48 17 -4 20 -14 20 -54z m-1680 21 c0 -25 -10 -50
-21 -50 -10 0 -12 63 -3 73 11 10 24 -3 24 -23z m170 20 c0 -5 -4 -10 -10 -10
-5 0 -10 5 -10 10 0 6 5 10 10 10 6 0 10 -4 10 -10z m1570 -10 c0 -5 -4 -10
-9 -10 -6 0 -13 5 -16 10 -3 6 1 10 9 10 9 0 16 -4 16 -10z m-2695 -10 c-3 -5
-10 -10 -16 -10 -5 0 -9 5 -9 10 0 6 7 10 16 10 8 0 12 -4 9 -10z m1010 0 c3
-5 1 -10 -4 -10 -6 0 -11 5 -11 10 0 6 2 10 4 10 3 0 8 -4 11 -10z m-2233 -6
c3 -3 2 -22 -3 -42 -5 -20 -11 -116 -14 -212 -3 -96 -10 -200 -16 -230 -12
-66 -17 -92 -19 -105 -1 -5 -5 0 -10 12 -11 26 -36 22 -45 -8 -4 -12 -16 -19
-31 -19 -13 0 -24 -4 -24 -8 0 -5 -7 -17 -16 -28 -14 -17 -15 -11 -9 81 3 55
10 138 15 185 27 231 32 287 31 315 0 25 3 30 24 31 25 2 36 -21 14 -28 -20
-7 -26 -53 -55 -409 -6 -67 -5 -76 10 -76 10 0 15 6 12 14 -5 13 5 74 23 134
4 14 4 35 0 48 -6 16 -3 30 10 49 24 33 34 102 21 136 -9 24 -8 25 9 14 15 -9
23 -9 35 1 19 16 13 50 -16 98 l-18 31 27 10 c35 13 38 13 45 6z m4418 -15 c0
-5 -7 -9 -15 -9 -8 0 -15 7 -15 15 0 9 6 12 15 9 8 -4 15 -10 15 -15z m186 -4
c4 -8 3 -22 0 -31 -5 -13 -9 -14 -21 -4 -8 7 -15 21 -15 31 0 23 28 25 36 4z
m-2066 -15 c0 -5 -4 -10 -10 -10 -5 0 -10 5 -10 10 0 6 5 10 10 10 6 0 10 -4
10 -10z m-1260 -9 c0 -6 -4 -13 -10 -16 -5 -3 -10 1 -10 9 0 9 5 16 10 16 6 0
10 -4 10 -9z m322 -19 c26 -27 26 -27 7 -51 -11 -13 -25 -21 -34 -17 -17 6
-20 37 -4 53 8 8 8 13 0 17 -12 8 -15 26 -3 26 4 0 19 -13 34 -28z m2703 -176
c137 -87 154 -100 155 -113 0 -21 -31 -15 -99 17 -71 34 -161 70 -235 94 -31
10 -62 30 -83 52 -35 39 -39 54 -22 85 10 19 14 18 102 -29 51 -26 133 -74
182 -106z m-2035 134 c0 -5 -2 -10 -4 -10 -3 0 -8 5 -11 10 -3 6 -1 10 4 10 6
0 11 -4 11 -10z m1607 -232 c-1 -46 -3 -9 -3 82 0 91 2 128 3 83 2 -46 2 -120
0 -165z m-2601 220 c4 -6 0 -16 -9 -23 -10 -7 -17 -18 -17 -24 0 -7 -5 -9 -10
-6 -8 5 -8 11 0 20 8 9 8 15 0 20 -5 3 -10 10 -10 16 0 13 37 11 46 -3z m1474
-24 c0 -16 -16 -19 -25 -4 -8 13 4 32 16 25 5 -4 9 -13 9 -21z m625 -12 c111
-47 117 -63 45 -110 -34 -22 -60 -49 -80 -86 -40 -70 -66 -94 -88 -80 -24 16
-26 52 -7 164 9 54 16 107 15 117 -5 43 0 43 115 -5z m-1388 12 c8 -22 -18
-37 -36 -20 -7 8 -10 19 -7 25 10 16 36 13 43 -5z m500 0 c9 -25 -13 -40 -26
-16 -10 19 -6 32 11 32 5 0 11 -7 15 -16z m-427 -14 c0 -5 -4 -10 -10 -10 -5
0 -10 5 -10 10 0 6 5 10 10 10 6 0 10 -4 10 -10z m730 -9 c0 -12 -20 -25 -27
-18 -7 7 6 27 18 27 5 0 9 -4 9 -9z m-1500 -11 c0 -5 -2 -10 -4 -10 -3 0 -8 5
-11 10 -3 6 -1 10 4 10 6 0 11 -4 11 -10z m1130 -15 c14 -17 5 -36 -15 -28
-16 6 -21 43 -6 43 5 0 14 -7 21 -15z m55 -5 c3 -5 -1 -10 -9 -10 -9 0 -16 5
-16 10 0 6 4 10 9 10 6 0 13 -4 16 -10z m235 -4 c0 -18 -39 -31 -52 -18 -15
15 0 32 28 32 14 0 24 -6 24 -14z m113 -19 c12 -38 3 -57 -30 -57 -17 0 -40
-12 -60 -30 -18 -17 -36 -30 -41 -30 -6 0 -12 -7 -16 -15 -8 -22 -34 -18 -41
5 -4 14 1 29 18 48 14 15 41 45 60 67 27 31 42 40 68 40 27 0 34 -5 42 -28z
m53 -3 c-5 -13 -10 -14 -18 -6 -6 6 -8 18 -4 28 5 13 10 14 18 6 6 -6 8 -18 4
-28z m2636 -24 c44 -26 70 -49 73 -63 2 -12 14 -62 25 -112 110 -497 137 -632
127 -642 -4 -3 -15 1 -25 10 -16 15 -19 15 -30 -3 -7 -11 -12 -26 -12 -33 0
-8 -9 -22 -21 -33 -14 -12 -18 -25 -14 -41 8 -32 -15 -39 -55 -18 -40 21 -90
71 -90 90 0 7 -9 16 -20 19 -11 3 -30 9 -42 12 -21 6 -22 6 -8 -12 14 -17 13
-18 -1 -6 -9 6 -15 23 -14 37 2 13 -3 29 -11 36 -8 6 -14 17 -14 24 0 6 -20
20 -45 31 -47 19 -54 31 -32 53 10 10 6 17 -16 37 -27 23 -54 30 -104 25 -13
-1 -23 3 -23 9 0 6 5 8 12 4 6 -4 8 -3 4 4 -11 19 32 114 70 153 39 40 39 38
14 126 -16 55 -7 88 35 126 30 29 65 104 65 141 0 20 47 66 66 66 10 0 48 -18
86 -40z m-3449 -52 c7 -23 -10 -33 -29 -17 -22 18 -47 76 -38 90 8 13 59 -42
67 -73z m585 55 c-3 -31 -34 -44 -44 -19 -7 19 12 46 33 46 10 0 13 -9 11 -27z
m-464 -8 c3 -9 -1 -18 -9 -21 -8 -4 -15 -12 -15 -20 0 -8 -7 -14 -15 -14 -17
0 -20 23 -5 51 13 23 36 25 44 4z m4160 -1 c4 -9 4 -19 2 -21 -8 -8 -26 8 -26
23 0 19 16 18 24 -2z m-1549 -4 c3 -5 -1 -10 -9 -10 -9 0 -16 5 -16 10 0 6 4
10 9 10 6 0 13 -4 16 -10z m309 -5 c6 -16 -3 -19 -28 -9 -22 8 -20 24 3 24 10
0 21 -7 25 -15z m-3324 -11 c0 -8 -4 -12 -10 -9 -5 3 -10 10 -10 16 0 5 5 9
10 9 6 0 10 -7 10 -16z m1924 -19 c-4 -8 -8 -15 -10 -15 -2 0 -4 7 -4 15 0 8
4 15 10 15 5 0 7 -7 4 -15z m-4114 -57 c-1 -15 -24 -48 -34 -48 -11 0 -7 35 6
48 16 16 28 15 28 0z m3020 -4 c0 -9 -5 -14 -12 -12 -18 6 -21 28 -4 28 9 0
16 -7 16 -16z m3150 -14 c0 -5 -2 -10 -4 -10 -3 0 -8 5 -11 10 -3 6 -1 10 4
10 6 0 11 -4 11 -10z m-2770 -40 c0 -5 -4 -10 -9 -10 -6 0 -13 5 -16 10 -3 6
1 10 9 10 9 0 16 -4 16 -10z m406 -25 c3 -14 12 -25 20 -25 19 0 18 -15 -3
-36 -31 -30 -53 -68 -53 -91 0 -13 -4 -23 -9 -23 -5 0 -11 -10 -13 -22 -2 -17
-10 -23 -28 -23 -33 0 -34 36 -2 50 21 9 26 21 23 58 -1 9 2 17 7 17 16 0 31
48 25 84 -4 29 -2 36 11 36 8 0 18 -11 22 -25z m-1388 -57 c2 -10 11 -18 18
-18 8 0 14 -5 14 -11 0 -6 -6 -9 -14 -6 -8 3 -17 0 -20 -8 -3 -10 -15 -4 -40
20 -33 31 -45 63 -30 78 10 10 66 -34 72 -55z m442 52 c0 -5 -4 -10 -10 -10
-5 0 -10 5 -10 10 0 6 5 10 10 10 6 0 10 -4 10 -10z m-950 -15 c0 -8 -4 -15
-10 -15 -5 0 -10 7 -10 15 0 8 5 15 10 15 6 0 10 -7 10 -15z m2389 -230 c-1
-104 -2 -185 -4 -180 -7 22 -12 409 -4 390 4 -11 8 -105 8 -210z m-1369 185
c0 -5 -2 -10 -4 -10 -3 0 -8 5 -11 10 -3 6 -1 10 4 10 6 0 11 -4 11 -10z
m-1377 -24 c7 -18 -23 -30 -37 -16 -8 8 -7 14 4 20 21 13 27 12 33 -4z m1075
-14 c2 -7 -3 -12 -12 -12 -9 0 -16 7 -16 16 0 17 22 14 28 -4z m347 -12 c3 -5
2 -10 -4 -10 -5 0 -13 5 -16 10 -3 6 -2 10 4 10 5 0 13 -4 16 -10z m-8425 -46
c0 -6 -6 -17 -14 -23 -22 -18 -41 21 -25 51 11 21 12 21 25 3 8 -10 14 -24 14
-31z m7562 23 c12 -19 -3 -28 -35 -21 -31 6 -47 19 -47 38 0 12 73 -3 82 -17z
m-522 4 c0 -6 -4 -13 -10 -16 -5 -3 -10 1 -10 9 0 9 5 16 10 16 6 0 10 -4 10
-9z m1375 -21 c3 -5 1 -10 -4 -10 -6 0 -11 5 -11 10 0 6 2 10 4 10 3 0 8 -4
11 -10z m3420 -10 c3 -5 1 -10 -4 -10 -6 0 -11 5 -11 10 0 6 2 10 4 10 3 0 8
-4 11 -10z m-3165 -46 c0 -16 -16 -19 -25 -4 -8 13 4 32 16 25 5 -4 9 -13 9
-21z m-2850 0 c0 -16 -50 -84 -62 -84 -15 0 -8 22 20 61 29 41 42 49 42 23z
m2608 -3 c3 -8 -1 -12 -9 -9 -7 2 -15 10 -17 17 -3 8 1 12 9 9 7 -2 15 -10 17
-17z m-548 -36 c16 -19 3 -40 -16 -24 -15 13 -19 39 -5 39 5 0 14 -7 21 -15z
m300 -80 c0 -8 -7 -15 -15 -15 -8 0 -15 7 -15 15 0 8 7 15 15 15 8 0 15 -7 15
-15z m2287 -1 c7 -19 -20 -49 -36 -40 -12 8 -15 39 -4 49 12 12 33 7 40 -9z
m-5247 -105 c0 -5 -4 -9 -10 -9 -5 0 -10 7 -10 16 0 8 5 12 10 9 6 -3 10 -10
10 -16z m4265 11 c18 -8 18 -9 -5 -9 -14 0 -32 4 -40 9 -12 8 -12 10 5 9 11 0
29 -4 40 -9z m1560 -22 c13 -31 111 -129 184 -182 18 -14 59 -49 90 -78 31
-29 75 -69 99 -88 23 -19 42 -38 42 -42 0 -18 -24 -5 -73 40 -29 26 -71 64
-93 83 -23 18 -96 82 -162 140 -66 59 -126 109 -133 111 -9 3 -8 9 2 26 19 30
28 28 44 -10z m-2605 7 c15 -18 13 -21 -20 -29 -31 -8 -55 7 -47 28 8 20 51
21 67 1z m-2342 -21 c-8 -8 -272 -73 -277 -68 -8 8 5 12 139 46 127 32 151 36
138 22z m3741 -10 c81 -12 129 -24 93 -24 -21 0 -307 41 -317 45 -16 7 121 -5
224 -21z m-3439 6 c19 -12 -47 -13 -105 -1 -38 8 -36 9 25 10 36 0 72 -4 80
-9z m1968 -45 c140 -13 256 -26 259 -29 10 -9 -27 -7 -257 14 -118 11 -251 23
-295 26 -44 4 -87 11 -95 16 -17 10 12 8 388 -27z m462 11 c0 -2 3 -12 6 -21
5 -13 2 -16 -17 -13 -31 4 -39 38 -10 38 12 0 21 -2 21 -4z m922 -58 c2 -21 0
-38 -4 -38 -4 0 -7 24 -7 53 1 54 5 49 11 -15z m443 40 c44 -6 85 -15 90 -20
6 -6 0 -7 -15 -4 -14 3 -79 13 -145 21 -66 9 -122 19 -125 22 -5 6 65 -1 195
-19z m-2188 -14 c-9 -9 -28 6 -21 18 4 6 10 6 17 -1 6 -6 8 -13 4 -17z m2353
-14 c0 -13 -11 -13 -30 0 -12 8 -11 10 8 10 12 0 22 -4 22 -10z m180 -20 c0
-5 -4 -10 -10 -10 -5 0 -10 5 -10 10 0 6 5 10 10 10 6 0 10 -4 10 -10z m-1330
-35 c173 -20 319 -40 324 -45 14 -14 26 -15 -332 25 -174 20 -321 40 -326 45
-14 14 -20 14 334 -25z m1060 31 c0 -2 -9 -6 -20 -9 -11 -3 -18 -1 -14 4 5 9
34 13 34 5z m518 -15 c3 -8 -1 -12 -9 -9 -7 2 -15 10 -17 17 -3 8 1 12 9 9 7
-2 15 -10 17 -17z m-2128 -1 c0 -5 -4 -10 -9 -10 -6 0 -13 5 -16 10 -3 6 1 10
9 10 9 0 16 -4 16 -10z m1530 0 c-14 -4 -36 -8 -50 -8 -22 0 -22 1 5 8 17 4
39 8 50 8 16 0 15 -2 -5 -8z m530 -15 c0 -8 -4 -15 -10 -15 -5 0 -10 7 -10 15
0 8 5 15 10 15 6 0 10 -7 10 -15z m-617 -2 c-7 -2 -19 -2 -25 0 -7 3 -2 5 12
5 14 0 19 -2 13 -5z m-1143 -23 c0 -17 -43 -70 -56 -70 -26 0 -25 23 2 51 28
29 54 38 54 19z m1300 0 c0 -5 -2 -10 -4 -10 -3 0 -8 5 -11 10 -3 6 -1 10 4
10 6 0 11 -4 11 -10z m-649 -20 c10 0 19 -4 19 -10 0 -11 -30 -13 -54 -4 -9 3
-16 11 -16 16 0 6 7 7 16 4 9 -3 24 -6 35 -6z m-791 -10 c0 -5 -4 -10 -10 -10
-5 0 -10 5 -10 10 0 6 5 10 10 10 6 0 10 -4 10 -10z m-35 -50 c3 -5 1 -10 -4
-10 -6 0 -11 5 -11 10 0 6 2 10 4 10 3 0 8 -4 11 -10z m55 0 c0 -5 -4 -10 -10
-10 -5 0 -10 5 -10 10 0 6 5 10 10 10 6 0 10 -4 10 -10z m1510 -31 c7 -11 9
-24 5 -27 -9 -9 -40 13 -43 32 -5 23 25 20 38 -5z m-1340 -4 c0 -8 -4 -15 -10
-15 -5 0 -10 7 -10 15 0 8 5 15 10 15 6 0 10 -7 10 -15z m795 -35 c13 -25 13
-30 1 -30 -7 0 -16 8 -20 18 -3 9 -9 23 -12 30 -12 27 16 10 31 -18z m-775
-10 c0 -5 -4 -10 -10 -10 -5 0 -10 5 -10 10 0 6 5 10 10 10 6 0 10 -4 10 -10z
m-400 -10 c0 -5 -5 -10 -11 -10 -5 0 -7 5 -4 10 3 6 8 10 11 10 2 0 4 -4 4
-10z m1754 -61 c-4 -6 -11 -6 -20 2 -21 17 -17 31 6 19 11 -6 18 -15 14 -21z
m816 -29 c0 -15 -7 -20 -24 -20 -29 0 -44 19 -25 31 25 16 49 10 49 -11z
m-822 -33 c2 -10 -3 -17 -11 -17 -16 0 -30 24 -19 34 10 10 27 1 30 -17z
m-811 -29 c-3 -7 -5 -2 -5 12 0 14 2 19 5 13 2 -7 2 -19 0 -25z m1813 -55 c23
-29 14 -51 -17 -38 -10 5 -20 8 -23 7 -5 0 -6 47 -1 56 5 9 23 -2 41 -25z
m-357 -42 c23 -21 56 -46 74 -55 17 -9 35 -21 39 -27 5 -9 -35 -110 -75 -189
-4 -8 -72 -37 -150 -63 -110 -37 -146 -45 -157 -36 -19 16 -28 76 -15 105 21
46 214 304 228 304 7 0 32 -17 56 -39z m-2034 -40 c7 -5 11 -13 7 -19 -3 -5 1
-15 9 -22 21 -18 18 -48 -5 -55 -39 -12 -91 41 -60 60 6 4 8 11 5 16 -15 23
17 37 44 20z m-745 -7 c17 -6 22 -24 8 -24 -5 0 -17 7 -28 15 -19 15 -8 20 20
9z m3042 -9 c9 -9 18 -43 21 -85 5 -61 4 -70 -10 -65 -12 5 -15 -1 -14 -27 2
-29 -1 -33 -27 -36 -16 -2 -33 1 -39 7 -6 6 -21 11 -34 11 -48 0 -37 75 20
129 14 13 23 29 20 37 -15 38 32 60 63 29z m-666 -5 c0 -5 -4 -10 -10 -10 -5
0 -10 5 -10 10 0 6 5 10 10 10 6 0 10 -4 10 -10z m96 -3 c2 -7 1 -31 -4 -52
-7 -33 -12 -40 -32 -40 -19 0 -25 6 -27 27 -2 27 30 78 48 78 5 0 12 -6 15
-13z m-2475 -17 c24 -14 25 -30 0 -30 -21 0 -45 23 -34 33 8 9 11 9 34 -3z
m2117 -12 c5 -7 28 -48 51 -90 57 -106 54 -134 -12 -109 -22 9 -24 14 -20 64
2 31 -1 58 -7 62 -6 3 -7 0 -4 -9 3 -9 1 -16 -5 -16 -12 0 -27 48 -17 57 3 3
-2 11 -11 18 -9 7 -13 17 -9 23 9 15 21 15 34 0z m80 -77 c3 -8 -1 -12 -9 -9
-7 2 -15 10 -17 17 -3 8 1 12 9 9 7 -2 15 -10 17 -17z m-2198 -26 c17 -21 8
-50 -18 -53 -30 -5 -52 14 -52 44 0 20 5 24 29 24 16 0 34 -7 41 -15z m1700
-5 c13 -8 13 -10 0 -10 -10 0 -7 -5 8 -16 23 -16 30 -58 12 -69 -34 -21 -96
59 -69 91 13 16 28 18 49 4z m70 -96 c0 -8 -4 -14 -9 -14 -11 0 -22 26 -14 34
9 9 23 -3 23 -20z m-75 -25 c10 -14 1 -21 -19 -13 -9 3 -13 10 -10 15 7 12 21
11 29 -2z m1220 -1 c14 -6 25 -17 25 -25 0 -7 5 -13 10 -13 16 0 12 -47 -6
-65 -26 -26 -47 -13 -66 39 -13 37 -14 53 -6 63 13 16 11 16 43 1z m-2985 -35
c0 -42 -15 -61 -37 -47 -25 16 -29 45 -7 61 28 21 44 16 44 -14z m7799 4 c-28
-21 -59 -36 -59 -29 0 9 37 30 54 31 5 1 7 0 5 -2z m-7149 -147 c0 -11 -4 -20
-10 -20 -5 0 -10 9 -10 20 0 11 5 20 10 20 6 0 10 -9 10 -20z m2030 4 c0 -2
-7 -4 -15 -4 -8 0 -15 4 -15 10 0 5 7 7 15 4 8 -4 15 -8 15 -10z m-2088 -86
c-9 -9 -12 -7 -12 12 0 19 3 21 12 12 9 -9 9 -15 0 -24z m88 22 c0 -5 -2 -10
-4 -10 -3 0 -8 5 -11 10 -3 6 -1 10 4 10 6 0 11 -4 11 -10z m2312 -22 c-15
-15 -26 -4 -18 18 5 13 9 15 18 6 9 -9 9 -15 0 -24z m-2982 -233 c10 -12 9
-16 -4 -21 -18 -7 -49 13 -40 27 8 14 30 11 44 -6z m2061 -191 c12 -14 11 -16
-5 -13 -11 2 -21 10 -24 17 -5 17 13 15 29 -4z"/>
<path d="M10746 6086 c-18 -46 -20 -74 -8 -94 11 -17 42 -5 43 17 0 9 3 37 5
62 6 65 -18 74 -40 15z"/>
<path d="M12174 5152 c-21 -14 -24 -41 -6 -51 16 -8 18 -5 18 25 0 19 0 34 0
34 -1 0 -6 -4 -12 -8z"/>
<path d="M12218 5153 c-25 -6 -23 -40 3 -53 11 -7 23 -9 27 -6 3 3 0 6 -7 6
-9 0 -12 10 -9 30 3 17 4 29 4 29 -1 -1 -9 -3 -18 -6z"/>
<path d="M12260 5136 c0 -8 5 -18 10 -21 6 -3 10 1 10 9 0 8 -4 18 -10 21 -5
3 -10 -1 -10 -9z"/>
<path d="M12380 5130 c0 -5 5 -10 10 -10 6 0 10 5 10 10 0 6 -4 10 -10 10 -5
0 -10 -4 -10 -10z"/>
<path d="M12260 5085 c-7 -8 -17 -12 -22 -9 -6 4 -8 -2 -3 -15 4 -15 2 -20 -7
-18 -7 2 -10 2 -6 0 4 -2 4 -12 1 -21 -4 -11 3 -8 19 9 14 14 29 35 32 47 9
26 3 28 -14 7z"/>
<path d="M12155 5040 c3 -5 11 -10 16 -10 6 0 7 5 4 10 -3 6 -11 10 -16 10 -6
0 -7 -4 -4 -10z"/>
<path d="M11215 5080 c-4 -6 5 -10 19 -10 14 0 26 5 26 10 0 6 -9 10 -19 10
-11 0 -23 -4 -26 -10z"/>
<path d="M12909 4636 c-9 -6 -21 -21 -28 -33 -11 -22 -10 -22 21 -16 18 3 46
11 62 17 l28 11 -34 17 c-26 12 -38 13 -49 4z"/>
<path d="M10190 4480 c0 -5 5 -10 11 -10 5 0 7 5 4 10 -3 6 -8 10 -11 10 -2 0
-4 -4 -4 -10z"/>
<path d="M13978 2949 c-10 -5 -18 -14 -18 -19 0 -6 -8 -18 -17 -28 -40 -42
-54 -65 -59 -95 -3 -18 -2 -27 3 -21 4 6 23 17 41 25 17 8 32 21 32 29 0 9 9
23 20 33 13 11 20 29 20 52 0 19 -1 35 -2 35 -2 0 -11 -5 -20 -11z"/>
</g>
</svg>
