<svg id="visual" viewBox="0 0 900 450" width="900" height="450" xmlns="http://www.w3.org/2000/svg" xmlns:xlink="http://www.w3.org/1999/xlink" version="1.1"><g stroke-width="1" stroke-linejoin="bevel"><path d="M419 218L342 236L367 243Z" fill="#c3c9cf" stroke="#c3c9cf"></path><path d="M351 95L281 170L342 236Z" fill="#9ca7b0" stroke="#9ca7b0"></path><path d="M419 218L351 95L342 236Z" fill="#afb8bf" stroke="#afb8bf"></path><path d="M281 170L299 242L342 236Z" fill="#ffffff" stroke="#ffffff"></path><path d="M342 236L337 340L367 243Z" fill="#d7dbdf" stroke="#d7dbdf"></path><path d="M299 242L337 340L342 236Z" fill="#ebedef" stroke="#ebedef"></path><path d="M367 243L465 327L419 218Z" fill="#c3c9cf" stroke="#c3c9cf"></path><path d="M169 137L216 234L281 170Z" fill="#afb8bf" stroke="#afb8bf"></path><path d="M281 170L216 234L299 242Z" fill="#c3c9cf" stroke="#c3c9cf"></path><path d="M299 242L216 234L337 340Z" fill="#b9c1c7" stroke="#b9c1c7"></path><path d="M351 95L299 37L281 170Z" fill="#b9c1c7" stroke="#b9c1c7"></path><path d="M337 340L465 327L367 243Z" fill="#ebedef" stroke="#ebedef"></path><path d="M465 327L542 223L419 218Z" fill="#f5f6f7" stroke="#f5f6f7"></path><path d="M419 218L553 142L351 95Z" fill="#a6afb8" stroke="#a6afb8"></path><path d="M351 95L419 0L299 37Z" fill="#c3c9cf" stroke="#c3c9cf"></path><path d="M542 223L553 142L419 218Z" fill="#a6afb8" stroke="#a6afb8"></path><path d="M444 5L419 0L351 95Z" fill="#ffffff" stroke="#ffffff"></path><path d="M553 142L444 5L351 95Z" fill="#ebedef" stroke="#ebedef"></path><path d="M230 27L169 137L281 170Z" fill="#cdd2d7" stroke="#cdd2d7"></path><path d="M169 137L172 245L216 234Z" fill="#d7dbdf" stroke="#d7dbdf"></path><path d="M216 234L193 394L337 340Z" fill="#ffffff" stroke="#ffffff"></path><path d="M261 0L230 27L299 37Z" fill="#cdd2d7" stroke="#cdd2d7"></path><path d="M299 37L230 27L281 170Z" fill="#ffffff" stroke="#ffffff"></path><path d="M553 142L478 0L444 5Z" fill="#f5f6f7" stroke="#f5f6f7"></path><path d="M444 5L478 0L419 0Z" fill="#cdd2d7" stroke="#cdd2d7"></path><path d="M419 0L261 0L299 37Z" fill="#ebedef" stroke="#ebedef"></path><path d="M261 0L249 0L230 27Z" fill="#d7dbdf" stroke="#d7dbdf"></path><path d="M193 394L327 410L337 340Z" fill="#f5f6f7" stroke="#f5f6f7"></path><path d="M337 340L394 450L465 327Z" fill="#ffffff" stroke="#ffffff"></path><path d="M536 392L573 320L465 327Z" fill="#9ca7b0" stroke="#9ca7b0"></path><path d="M465 327L573 320L542 223Z" fill="#c3c9cf" stroke="#c3c9cf"></path><path d="M542 223L698 188L553 142Z" fill="#c3c9cf" stroke="#c3c9cf"></path><path d="M230 27L133 122L169 137Z" fill="#cdd2d7" stroke="#cdd2d7"></path><path d="M169 137L108 256L172 245Z" fill="#b9c1c7" stroke="#b9c1c7"></path><path d="M46 0L133 122L230 27Z" fill="#e1e4e7" stroke="#e1e4e7"></path><path d="M553 142L536 0L478 0Z" fill="#f5f6f7" stroke="#f5f6f7"></path><path d="M463 450L536 392L465 327Z" fill="#cdd2d7" stroke="#cdd2d7"></path><path d="M327 410L394 450L337 340Z" fill="#d7dbdf" stroke="#d7dbdf"></path><path d="M133 122L108 256L169 137Z" fill="#afb8bf" stroke="#afb8bf"></path><path d="M193 394L306 450L327 410Z" fill="#d7dbdf" stroke="#d7dbdf"></path><path d="M394 450L430 450L465 327Z" fill="#f5f6f7" stroke="#f5f6f7"></path><path d="M193 394L216 234L172 245Z" fill="#f5f6f7" stroke="#f5f6f7"></path><path d="M327 410L306 450L394 450Z" fill="#b9c1c7" stroke="#b9c1c7"></path><path d="M109 375L193 394L172 245Z" fill="#cdd2d7" stroke="#cdd2d7"></path><path d="M536 392L598 347L573 320Z" fill="#9ca7b0" stroke="#9ca7b0"></path><path d="M573 320L633 300L542 223Z" fill="#e1e4e7" stroke="#e1e4e7"></path><path d="M553 142L643 0L536 0Z" fill="#f5f6f7" stroke="#f5f6f7"></path><path d="M430 450L463 450L465 327Z" fill="#afb8bf" stroke="#afb8bf"></path><path d="M653 450L662 379L598 347Z" fill="#d7dbdf" stroke="#d7dbdf"></path><path d="M598 347L633 300L573 320Z" fill="#cdd2d7" stroke="#cdd2d7"></path><path d="M108 256L109 375L172 245Z" fill="#f5f6f7" stroke="#f5f6f7"></path><path d="M193 394L175 450L306 450Z" fill="#d7dbdf" stroke="#d7dbdf"></path><path d="M633 300L698 188L542 223Z" fill="#b9c1c7" stroke="#b9c1c7"></path><path d="M711 161L643 0L553 142Z" fill="#ebedef" stroke="#ebedef"></path><path d="M109 375L175 450L193 394Z" fill="#d7dbdf" stroke="#d7dbdf"></path><path d="M698 188L711 161L553 142Z" fill="#a6afb8" stroke="#a6afb8"></path><path d="M598 347L662 379L633 300Z" fill="#ebedef" stroke="#ebedef"></path><path d="M633 300L791 284L698 188Z" fill="#cdd2d7" stroke="#cdd2d7"></path><path d="M698 188L797 261L711 161Z" fill="#afb8bf" stroke="#afb8bf"></path><path d="M653 450L598 347L536 392Z" fill="#a6afb8" stroke="#a6afb8"></path><path d="M249 0L46 0L230 27Z" fill="#afb8bf" stroke="#afb8bf"></path><path d="M133 122L0 121L108 256Z" fill="#e1e4e7" stroke="#e1e4e7"></path><path d="M108 256L34 345L109 375Z" fill="#b9c1c7" stroke="#b9c1c7"></path><path d="M797 261L737 117L711 161Z" fill="#c3c9cf" stroke="#c3c9cf"></path><path d="M711 161L737 117L643 0Z" fill="#cdd2d7" stroke="#cdd2d7"></path><path d="M0 303L34 345L108 256Z" fill="#f5f6f7" stroke="#f5f6f7"></path><path d="M109 375L108 450L175 450Z" fill="#b9c1c7" stroke="#b9c1c7"></path><path d="M0 420L108 450L109 375Z" fill="#ebedef" stroke="#ebedef"></path><path d="M46 0L0 121L133 122Z" fill="#cdd2d7" stroke="#cdd2d7"></path><path d="M737 117L739 110L643 0Z" fill="#c3c9cf" stroke="#c3c9cf"></path><path d="M0 121L0 249L108 256Z" fill="#e1e4e7" stroke="#e1e4e7"></path><path d="M739 110L706 0L643 0Z" fill="#9ca7b0" stroke="#9ca7b0"></path><path d="M463 450L653 450L536 392Z" fill="#cdd2d7" stroke="#cdd2d7"></path><path d="M662 379L791 284L633 300Z" fill="#cdd2d7" stroke="#cdd2d7"></path><path d="M737 117L900 161L739 110Z" fill="#b9c1c7" stroke="#b9c1c7"></path><path d="M0 249L0 303L108 256Z" fill="#b9c1c7" stroke="#b9c1c7"></path><path d="M34 345L0 420L109 375Z" fill="#d7dbdf" stroke="#d7dbdf"></path><path d="M653 450L681 450L662 379Z" fill="#cdd2d7" stroke="#cdd2d7"></path><path d="M46 0L0 0L0 121Z" fill="#cdd2d7" stroke="#cdd2d7"></path><path d="M736 450L791 284L662 379Z" fill="#ebedef" stroke="#ebedef"></path><path d="M791 284L797 261L698 188Z" fill="#a6afb8" stroke="#a6afb8"></path><path d="M739 110L778 34L706 0Z" fill="#c3c9cf" stroke="#c3c9cf"></path><path d="M843 0L778 34L900 62Z" fill="#f5f6f7" stroke="#f5f6f7"></path><path d="M0 303L0 420L34 345Z" fill="#d7dbdf" stroke="#d7dbdf"></path><path d="M681 450L736 450L662 379Z" fill="#ebedef" stroke="#ebedef"></path><path d="M0 420L0 450L108 450Z" fill="#afb8bf" stroke="#afb8bf"></path><path d="M900 62L778 34L739 110Z" fill="#f5f6f7" stroke="#f5f6f7"></path><path d="M778 34L843 0L706 0Z" fill="#f5f6f7" stroke="#f5f6f7"></path><path d="M736 450L850 355L791 284Z" fill="#f5f6f7" stroke="#f5f6f7"></path><path d="M791 284L850 355L797 261Z" fill="#ebedef" stroke="#ebedef"></path><path d="M797 261L900 161L737 117Z" fill="#c3c9cf" stroke="#c3c9cf"></path><path d="M736 450L860 363L850 355Z" fill="#d7dbdf" stroke="#d7dbdf"></path><path d="M900 230L900 161L797 261Z" fill="#e1e4e7" stroke="#e1e4e7"></path><path d="M900 230L797 261L850 355Z" fill="#cdd2d7" stroke="#cdd2d7"></path><path d="M860 363L900 230L850 355Z" fill="#ffffff" stroke="#ffffff"></path><path d="M900 161L900 62L739 110Z" fill="#d7dbdf" stroke="#d7dbdf"></path><path d="M900 62L900 0L843 0Z" fill="#c3c9cf" stroke="#c3c9cf"></path><path d="M736 450L900 441L860 363Z" fill="#9ca7b0" stroke="#9ca7b0"></path><path d="M860 363L900 441L900 230Z" fill="#ffffff" stroke="#ffffff"></path><path d="M736 450L900 450L900 441Z" fill="#c3c9cf" stroke="#c3c9cf"></path></g></svg>