<svg id="visual" viewBox="0 0 900 450" width="900" height="450" xmlns="http://www.w3.org/2000/svg" xmlns:xlink="http://www.w3.org/1999/xlink" version="1.1"><rect x="0" y="0" width="900" height="450" fill="#002233"></rect><path d="M823 450L829.3 445.8C835.7 441.7 848.3 433.3 855 425C861.7 416.7 862.3 408.3 856 400C849.7 391.7 836.3 383.3 838.5 375C840.7 366.7 858.3 358.3 856.8 350C855.3 341.7 834.7 333.3 815 325C795.3 316.7 776.7 308.3 767.3 300C758 291.7 758 283.3 767.2 275C776.3 266.7 794.7 258.3 810.2 250C825.7 241.7 838.3 233.3 843.2 225C848 216.7 845 208.3 832.7 200C820.3 191.7 798.7 183.3 799.2 175C799.7 166.7 822.3 158.3 816.5 150C810.7 141.7 776.3 133.3 763.2 125C750 116.7 758 108.3 774.3 100C790.7 91.7 815.3 83.3 834.3 75C853.3 66.7 866.7 58.3 860.5 50C854.3 41.7 828.7 33.3 817 25C805.3 16.7 807.7 8.3 808.8 4.2L810 0L900 0L900 4.2C900 8.3 900 16.7 900 25C900 33.3 900 41.7 900 50C900 58.3 900 66.7 900 75C900 83.3 900 91.7 900 100C900 108.3 900 116.7 900 125C900 133.3 900 141.7 900 150C900 158.3 900 166.7 900 175C900 183.3 900 191.7 900 200C900 208.3 900 216.7 900 225C900 233.3 900 241.7 900 250C900 258.3 900 266.7 900 275C900 283.3 900 291.7 900 300C900 308.3 900 316.7 900 325C900 333.3 900 341.7 900 350C900 358.3 900 366.7 900 375C900 383.3 900 391.7 900 400C900 408.3 900 416.7 900 425C900 433.3 900 441.7 900 445.8L900 450Z" fill="#c7d1e0" stroke-linecap="round" stroke-linejoin="miter"></path></svg>