<?xml version="1.0" standalone="no"?>
<!DOCTYPE svg PUBLIC "-//W3C//DTD SVG 20010904//EN"
 "http://www.w3.org/TR/2001/REC-SVG-20010904/DTD/svg10.dtd">
<svg version="1.0" xmlns="http://www.w3.org/2000/svg"
 width="225.000000pt" height="225.000000pt" viewBox="0 0 225.000000 225.000000"
 preserveAspectRatio="xMidYMid meet">

<g transform="translate(0.000000,225.000000) scale(0.100000,-0.100000)"
fill="#000000" stroke="none">
<path d="M0 1125 l0 -1125 1125 0 1125 0 0 1125 0 1125 -1125 0 -1125 0 0
-1125z m1480 473 c28 -63 69 -213 77 -276 5 -47 3 -57 -12 -68 -11 -8 -22 -14
-26 -14 -3 0 -12 35 -19 78 -6 42 -23 112 -37 155 l-26 77 -102 0 c-56 0 -190
-3 -299 -7 -196 -6 -196 -6 -183 -27 27 -42 75 -173 93 -251 19 -85 25 -270
11 -338 l-8 -38 -30 21 c-28 20 -29 25 -29 95 0 190 -81 423 -199 573 -22 27
-37 53 -34 56 4 3 186 6 405 6 l399 0 19 -42z m-795 -115 c84 -109 167 -321
181 -460 8 -78 -8 -85 -25 -10 -28 127 -124 301 -241 436 l-70 81 59 0 c60 0
60 0 96 -47z m-64 -145 c34 -39 77 -96 96 -126 50 -78 120 -222 109 -222 -3 0
-28 32 -56 71 -68 93 -187 218 -278 291 l-73 58 70 0 70 0 62 -72z m1159 -45
c-356 -210 -572 -380 -747 -586 -61 -72 -78 -86 -88 -75 -16 18 -245 384 -245
392 0 3 41 -28 91 -69 50 -42 108 -87 129 -101 l38 -25 103 79 c166 127 425
275 643 368 116 50 141 55 76 17z"/>
</g>
</svg>
